<svg width="150" height="150" viewBox="0 0 150 150" fill="none" xmlns="http://www.w3.org/2000/svg">
<g clip-path="url(#clip0_528_162)" filter="url(#filter0_d_528_162)">
<path d="M13.3252 85.1873C12.2041 78.4419 12.2041 71.5577 13.3252 64.8123C20.2127 64.9748 26.4002 61.6748 28.8064 55.8685C31.2127 50.056 29.1689 43.3435 24.1814 38.5998C28.159 33.0328 33.0287 28.161 38.5939 24.181C43.3439 29.1685 50.0564 31.2123 55.8689 28.806C61.6814 26.3998 64.9752 20.206 64.8064 13.3248C71.5559 12.2023 78.4445 12.2023 85.1939 13.3248C85.0252 20.2123 88.3252 26.3998 94.1314 28.806C99.9439 31.2123 106.656 29.1685 111.4 24.181C116.967 28.1586 121.839 33.0283 125.819 38.5935C120.831 43.3435 118.788 50.056 121.194 55.8685C123.6 61.681 129.794 64.9748 136.675 64.806C137.798 71.5555 137.798 78.444 136.675 85.1935C129.788 85.0248 123.6 88.3248 121.194 94.131C118.788 99.9435 120.831 106.656 125.819 111.4C121.841 116.967 116.972 121.839 111.406 125.819C106.656 120.831 99.9439 118.787 94.1314 121.194C88.3189 123.6 85.0252 129.794 85.1939 136.675C78.4445 137.797 71.5559 137.797 64.8064 136.675C64.9752 129.787 61.6752 123.6 55.8689 121.194C50.0564 118.787 43.3439 120.831 38.6002 125.819C33.0332 121.841 28.1614 116.971 24.1814 111.406C29.1689 106.656 31.2127 99.9435 28.8064 94.131C26.4002 88.3185 20.2064 85.0248 13.3252 85.1935V85.1873ZM75.0002 93.7498C79.973 93.7498 84.7421 91.7743 88.2584 88.258C91.7747 84.7417 93.7502 79.9726 93.7502 74.9998C93.7502 70.027 91.7747 65.2578 88.2584 61.7415C84.7421 58.2252 79.973 56.2498 75.0002 56.2498C70.0274 56.2498 65.2582 58.2252 61.7419 61.7415C58.2256 65.2578 56.2502 70.027 56.2502 74.9998C56.2502 79.9726 58.2256 84.7417 61.7419 88.258C65.2582 91.7743 70.0274 93.7498 75.0002 93.7498Z" fill="black"/>
</g>
<defs>
<filter id="filter0_d_528_162" x="-4" y="0" width="158" height="158" filterUnits="userSpaceOnUse" color-interpolation-filters="sRGB">
<feFlood flood-opacity="0" result="BackgroundImageFix"/>
<feColorMatrix in="SourceAlpha" type="matrix" values="0 0 0 0 0 0 0 0 0 0 0 0 0 0 0 0 0 0 127 0" result="hardAlpha"/>
<feOffset dy="4"/>
<feGaussianBlur stdDeviation="2"/>
<feComposite in2="hardAlpha" operator="out"/>
<feColorMatrix type="matrix" values="0 0 0 0 0 0 0 0 0 0 0 0 0 0 0 0 0 0 0.25 0"/>
<feBlend mode="normal" in2="BackgroundImageFix" result="effect1_dropShadow_528_162"/>
<feBlend mode="normal" in="SourceGraphic" in2="effect1_dropShadow_528_162" result="shape"/>
</filter>
<clipPath id="clip0_528_162">
<rect width="150" height="150" fill="white"/>
</clipPath>
</defs>
</svg>
